<svg width="20" height="20" viewBox="0 0 20 20" fill="none" xmlns="http://www.w3.org/2000/svg">
<path d="M8.74996 16.6667H11.25C11.3611 16.6667 11.4583 16.625 11.5416 16.5417C11.625 16.4583 11.6666 16.3611 11.6666 16.25C11.6666 16.1389 11.625 16.0417 11.5416 15.9583C11.4583 15.875 11.3611 15.8333 11.25 15.8333H8.74996C8.63885 15.8333 8.54163 15.875 8.45829 15.9583C8.37496 16.0417 8.33329 16.1389 8.33329 16.25C8.33329 16.3611 8.37496 16.4583 8.45829 16.5417C8.54163 16.625 8.63885 16.6667 8.74996 16.6667ZM5.83329 19.1667C5.37496 19.1667 4.98246 19.0033 4.65579 18.6767C4.32913 18.35 4.16607 17.9578 4.16663 17.5V2.5C4.16663 2.04166 4.32996 1.64916 4.65663 1.3225C4.98329 0.99583 5.37552 0.832774 5.83329 0.83333H14.1666C14.625 0.83333 15.0175 0.996663 15.3441 1.32333C15.6708 1.65 15.8338 2.04222 15.8333 2.5V17.5C15.8333 17.9583 15.67 18.3508 15.3433 18.6775C15.0166 19.0042 14.6244 19.1672 14.1666 19.1667H5.83329ZM5.83329 13.3333H14.1666V5H5.83329V13.3333Z" fill="white"/>
</svg>
